<svg width="20" height="18" viewBox="0 0 20 18" fill="none" xmlns="http://www.w3.org/2000/svg">
<path d="M13.4546 6.81022H0.020874V4.4725H13.4546C14.0433 4.4725 14.522 3.9938 14.522 3.40511C14.522 2.81642 14.0433 2.33772 13.4546 2.33772C13.2633 2.33772 13.0836 2.38575 12.9202 2.48102L11.7451 0.460108C12.2625 0.159566 12.8536 0 13.4546 0C15.3323 0 16.859 1.5275 16.859 3.40434C16.8598 5.28273 15.3323 6.81022 13.4546 6.81022Z" fill="#0066FF"/>
<path d="M20 8.19443H0V10.5322H20V8.19443Z" fill="#0066FF"/>
<path d="M20 11.9171H0V14.2548H20V11.9171Z" fill="#0066FF"/>
<path d="M20 15.639H0V17.9768H20V15.639Z" fill="#0066FF"/>
</svg>
